<svg id="Layer_1" data-name="Layer 1" xmlns="http://www.w3.org/2000/svg" viewBox="0 0 178 188"><defs><style>.cls-1{fill:#72cec5;}.cls-2{fill:#559a9d;}.cls-3{fill:#fff;}.cls-4{fill:none;}</style></defs><title>Artboard 19</title><path class="cls-1" d="M164,93.54A76.24,76.24,0,1,1,87.77,17.3,76.23,76.23,0,0,1,164,93.54Z"/><path class="cls-2" d="M119.91,120l10,.89,11.59-33,4.62-14.18L111.41,60.5,96.93,56.37l-22.5-8.58L11.73,99a76.3,76.3,0,0,0,59.05,68.89l49.8-36.71Z"/><path class="cls-3" d="M121.79,128.35a3.78,3.78,0,0,1-3.83,3.74H47.1a3.78,3.78,0,0,1-3.83-3.74v-46a3.78,3.78,0,0,1,3.83-3.74H118a3.78,3.78,0,0,1,3.83,3.74Z"/><path class="cls-4" d="M142.25,75.05,75.48,51.31a1.25,1.25,0,0,0-1.62.71l-2.74,7.7,69.21,24.61,2.73-7.71A1.25,1.25,0,0,0,142.25,75.05Z"/><path class="cls-3" d="M144.87,70.89,78.1,47.16a3.78,3.78,0,0,0-4.86,2.24L70.5,57.1l-1.57,4.45-1.3,3.65-1.79,5-2.36,6.64h2.69l2.06-5.79,16.28,5.79h35.23a3.78,3.78,0,0,1,3.82,3.73V90.74l13.88,4.93-8,22.5a1.26,1.26,0,0,1-1.63.71l-4.25-1.51v2.68l3.41,1.21a3.77,3.77,0,0,0,4.85-2.24l8-22.5,1.79-5,1.29-3.64,1.58-4.45,2.74-7.71A3.78,3.78,0,0,0,144.87,70.89Zm0,4-2.74,7.7L72.89,58l2.74-7.71a1.25,1.25,0,0,1,1.62-.7L144,73.28A1.25,1.25,0,0,1,144.84,74.85Z"/><path class="cls-3" d="M48.62,124.38h.94v-4.19h-1v-1.07h2.15v5.26h.87v1h-3Z"/><path class="cls-3" d="M52.29,120.93c0-1.32,1.27-1.9,2.42-1.9s2.62.52,2.62,2-1.2,1.9-2.52,1.9c-.52,0-1.36.14-1.36.82v.53h3.9v1.11H52.27v-1.65c0-1.44,1.31-1.87,2.54-1.87.48,0,1.35-.08,1.35-.81s-.62-1-1.43-1c-.62,0-1.25.31-1.26.87Z"/><path class="cls-3" d="M59.55,122.65v-1h.91c.64,0,1.31-.17,1.32-.76,0-.35-.29-.83-1.29-.83-.56,0-1.31.2-1.31.77H58c0-1.35,1.34-1.84,2.5-1.84s2.45.57,2.46,1.9a1.31,1.31,0,0,1-.87,1.24,1.5,1.5,0,0,1,1,1.32c0,1.53-1.44,2-2.65,2s-2.55-.51-2.56-1.93h1.19c0,.64.87.87,1.38.87s1.4-.25,1.4-.92c0-.38-.21-.85-1.34-.85Z"/><path class="cls-3" d="M68.55,119.12v3.93h.74v1.14h-.74v1.2H67.39v-1.2H64L63.93,123l2.82-3.88Zm-1.16,3.93v-2.9l-2.12,2.9Z"/><path class="cls-3" d="M76.54,120.24H73.15v1.1h1.22c1.33,0,2.53.54,2.52,2a2.19,2.19,0,0,1-2.46,2.11c-1.38,0-2.56-.49-2.57-2H73c0,.69.79.87,1.38.87s1.3-.27,1.3-1-.7-.91-1.34-.91H72v-3.32h4.54Z"/><path class="cls-3" d="M78.6,121V122a1.86,1.86,0,0,1,1.45-.66c1.27,0,2.59.53,2.59,2.09,0,1.39-1.33,2.07-2.6,2.07s-2.61-.68-2.61-2.09v-2.34c0-1.4,1.29-2,2.58-2s2.57.54,2.57,1.85H81.4c0-.55-.7-.83-1.37-.83s-1.43.38-1.43,1.06Zm2.87,2.37c0-.69-.63-1.06-1.42-1.06s-1.46.36-1.45,1.06.67,1,1.44,1S81.47,124.1,81.47,123.41Z"/><path class="cls-3" d="M83.3,125.39l2.56-5.15h-3v-1.12h4.6l.06.62-2.81,5.65Z"/><path class="cls-3" d="M88.58,122.15a1.37,1.37,0,0,1-.79-1.23c0-1.27,1.17-1.91,2.53-1.91s2.57.65,2.57,1.91a1.27,1.27,0,0,1-.81,1.18,1.55,1.55,0,0,1,1,1.4c0,1.46-1.31,2-2.71,2s-2.72-.56-2.7-2A1.53,1.53,0,0,1,88.58,122.15Zm.28,1.36c0,.49.51.95,1.47.95s1.48-.45,1.47-.95-.68-.89-1.47-.89S88.87,122.9,88.86,123.51Zm1.47-1.75c.72,0,1.31-.33,1.32-.88s-.53-.89-1.33-.89-1.34.46-1.32.89S89.64,121.76,90.33,121.76Z"/><path class="cls-3" d="M95.41,124.38h.94v-4.19h-1v-1.07h2.15v5.26h.87v1h-3Z"/><path class="cls-3" d="M99.08,120.93c0-1.32,1.26-1.9,2.42-1.9s2.61.52,2.61,2-1.2,1.9-2.51,1.9c-.52,0-1.36.14-1.36.82v.53h3.89v1.11H99.05v-1.65c0-1.44,1.31-1.87,2.55-1.87.47,0,1.34-.08,1.34-.81s-.62-1-1.42-1c-.62,0-1.26.31-1.27.87Z"/><path class="cls-3" d="M106.34,122.65v-1h.91c.63,0,1.3-.17,1.31-.76,0-.35-.28-.83-1.29-.83-.55,0-1.31.2-1.31.77h-1.18c0-1.35,1.35-1.84,2.5-1.84s2.46.57,2.47,1.9a1.33,1.33,0,0,1-.87,1.24,1.5,1.5,0,0,1,1,1.32c0,1.53-1.45,2-2.65,2s-2.56-.51-2.57-1.93h1.2c0,.64.86.87,1.38.87s1.39-.25,1.39-.92c0-.38-.2-.85-1.33-.85Z"/><path class="cls-3" d="M115.34,119.12v3.93h.73v1.14h-.73v1.2h-1.17v-1.2h-3.35l-.1-1.19,2.82-3.88Zm-1.17,3.93v-2.9l-2.12,2.9Z"/><path class="cls-2" d="M49.09,101.22v2.39a2.89,2.89,0,0,0,.07.72,2.54,2.54,0,0,0,2.69,2c2.28,0,4.56,0,6.83,0v-5.11Z"/><path class="cls-2" d="M59.59,98.33h5.25v.91H59.59v7.09h6.79a3.26,3.26,0,0,0,.76-.07,2.58,2.58,0,0,0,2-2.78V94.56H59.59Z"/><path class="cls-2" d="M63.22,93.65V86.27H54.69v7.38Z"/><path class="cls-2" d="M58.68,94.56H49.09c0,1.92,0,3.84,0,5.76h9.59Z"/><path class="cls-2" d="M53.78,86.27H52a3.47,3.47,0,0,0-.91.09,2.54,2.54,0,0,0-2,2.65c0,1.55,0,3.1,0,4.64h4.7Z"/><path class="cls-2" d="M69.15,93.65c0-1.51,0-3,0-4.53a3.65,3.65,0,0,0-.08-.88,2.55,2.55,0,0,0-2.69-2H64.13v7.38Z"/><path class="cls-3" d="M83.45,102.41a4.44,4.44,0,0,1-3.57,1.78c-3.48,0-5-3.07-5-6.21s1.58-6.34,5-6.34a4.37,4.37,0,0,1,3.44,1.84l-1.17,1.46a2.9,2.9,0,0,0-2.27-1.14c-2.26,0-3.24,2.17-3.23,4.18s.91,4.08,3.23,4.08a3.11,3.11,0,0,0,2.36-1.22Z"/><path class="cls-3" d="M90.68,101.65H85.77l-.8,2.27H83.05l4.21-12h1.93l4.21,12H91.47Zm-2.46-7.24-1.74,5.12H90Z"/><path class="cls-3" d="M102.5,103.92h-2.1l-2.73-4H96v4H94.19V91.86l4.47,0c2.21,0,3.37,1.91,3.37,4,0,1.65-.59,3.32-2.37,3.78l2.84,4.11ZM96,94v3.86h2.7c1.12,0,1.6-1,1.6-1.93S99.77,94,98.66,94Z"/><path class="cls-3" d="M111.47,97.8c0,3-1.4,6.12-4.69,6.12H103.1v-12h3.68C110,91.88,111.43,94.82,111.47,97.8Zm-6.62,3.93h1.93c2.13,0,3-2,2.94-4s-.9-3.75-2.94-3.75h-1.93Z"/></svg>