<svg id="Layer_1" data-name="Layer 1" xmlns="http://www.w3.org/2000/svg" viewBox="0 0 178 188"><defs><style>.cls-1{fill:#72cec5;}.cls-2,.cls-5{fill:#559a9d;}.cls-3,.cls-4{fill:#fff;}.cls-4,.cls-5{fill-rule:evenodd;}</style></defs><title>Artboard 18</title><path class="cls-1" d="M165.32,93.54A76.24,76.24,0,1,1,89.08,17.3,76.24,76.24,0,0,1,165.32,93.54Z"/><path class="cls-2" d="M121.23,120l3.47-5,5-30-1-13-16-11.5L98.25,56.37,54.7,54,13,99a76.3,76.3,0,0,0,59.05,68.89L117.7,131Z"/><rect class="cls-3" x="54.37" y="54.26" width="75.2" height="62.77"/><rect class="cls-2" x="54.37" y="54.26" width="75.2" height="12.02"/><rect class="cls-2" x="67.02" y="75.79" width="51.94" height="2.63"/><rect class="cls-2" x="67.02" y="86.1" width="51.94" height="2.63"/><rect class="cls-2" x="67.02" y="96.85" width="51.94" height="2.63"/><path class="cls-4" d="M126.62,102.92l-22,24.79a1.84,1.84,0,0,0-.3.63l-2.55,9.42a2.16,2.16,0,0,0,0,.48l0,0a1.71,1.71,0,0,0,.54,1,1.48,1.48,0,0,0,1.12.4,1.82,1.82,0,0,0,.48-.09l9.06-3.68a1.48,1.48,0,0,0,.56-.41l22-24.82Z"/><polygon class="cls-4" points="130.09 99.46 138.93 107.26 140.03 106.02 131.23 98.18 130.09 99.46"/><path class="cls-4" d="M138.05,93.23a6,6,0,0,1,6.3,5.61,5.69,5.69,0,0,1-1,3.67l-2.23,2.5L132.3,97.2l2.22-2.56a6.56,6.56,0,0,1,3.53-1.41Z"/><rect class="cls-3" x="132.07" y="99.24" width="1.71" height="11.79" transform="translate(-34 134.4) rotate(-48.28)"/><polygon class="cls-5" points="130.7 109.28 112.54 129.79 110 127.53 128.2 107.05 130.7 109.28"/><polygon class="cls-5" points="105.85 130.39 110.87 134.73 104.22 137.38 105.85 130.39"/></svg>