<svg id="Layer_1" data-name="Layer 1" xmlns="http://www.w3.org/2000/svg" viewBox="0 0 178 188"><defs><style>.cls-1{fill:#72cec5;}.cls-2{fill:#559a9d;}.cls-3{fill:#fff;}</style></defs><title>Artboard 20</title><path class="cls-1" d="M165.69,93.54A76.24,76.24,0,1,1,89.46,17.3,76.23,76.23,0,0,1,165.69,93.54Z"/><path class="cls-2" d="M121.6,120l3.47-5,5-30-1-13-16-11.5L98.62,56.37,55.07,54,13.42,99a76.3,76.3,0,0,0,59,68.89L118.07,131Z"/><rect class="cls-3" x="54.75" y="54.26" width="75.2" height="62.77"/><rect class="cls-2" x="54.75" y="54.26" width="75.2" height="12.02"/><rect class="cls-2" x="67.39" y="75.79" width="51.94" height="2.63"/><rect class="cls-2" x="67.39" y="86.1" width="51.94" height="2.63"/><rect class="cls-2" x="67.39" y="96.85" width="51.94" height="2.63"/><path class="cls-3" d="M94.69,127.42l8.8-9.4L112,130.29s9.12-22.76,29.72-34.93l1.32.86S125,109.73,116.2,143.4l-1.91.67Z"/><polygon class="cls-1" points="94.69 127.42 114.29 144.07 109.14 144.1 94.14 131.59 94.69 127.42"/><path class="cls-1" d="M112,130.29s9.12-22.76,29.72-34.93c-17.69,9.4-30.73,30.77-31.4,32.52Z"/></svg>