<svg id="Layer_1" data-name="Layer 1" xmlns="http://www.w3.org/2000/svg" viewBox="0 0 136.23 141.6"><defs><style>.cls-1{fill:#72cec5;}</style></defs><title>Artboard 4</title><path class="cls-1" d="M69.54,13.33a57.52,57.52,0,1,0,57.53,57.53A57.54,57.54,0,0,0,69.54,13.33Zm34,77.92a3.4,3.4,0,0,1-3.4,3.4,3.23,3.23,0,0,1-2.4-1,3.28,3.28,0,0,1-1-2.4V65.75a11.9,11.9,0,0,0-20.32-8.41,11.47,11.47,0,0,0-3.48,8.41v25.5a3.28,3.28,0,0,1-1,2.4,3.39,3.39,0,0,1-4.81,0,3.28,3.28,0,0,1-1-2.4V65.75a11.9,11.9,0,0,0-11.9-11.9,11.9,11.9,0,0,0-11.9,11.9v25.5a3.41,3.41,0,0,1-3.41,3.4,3.23,3.23,0,0,1-2.4-1,3.28,3.28,0,0,1-1-2.4V50.45a3.41,3.41,0,0,1,6.81,0v.9a17.76,17.76,0,0,1,11.9-4.3,18,18,0,0,1,13.22,5.48A23.67,23.67,0,0,1,69.54,55a21.32,21.32,0,0,1,2.08-2.42,18.69,18.69,0,0,1,26.44,0,18,18,0,0,1,5.48,13.22Z"/></svg>