<svg id="Layer_1" data-name="Layer 1" xmlns="http://www.w3.org/2000/svg" viewBox="0 0 178 188"><defs><style>.cls-1{fill:#72cec5;}.cls-2{fill:#559a9d;}.cls-3{fill:#fdfcea;}.cls-4{fill:#00a4a1;}.cls-5{fill:#fff;}.cls-6{fill:#f4f4f4;}</style></defs><title>Artboard 21</title><path class="cls-1" d="M165.38,93.54A76.24,76.24,0,1,1,89.14,17.3,76.24,76.24,0,0,1,165.38,93.54Z"/><path class="cls-2" d="M13.88,105.71A79,79,0,0,1,13,97,76.13,76.13,0,0,0,13.88,105.71Z"/><path class="cls-2" d="M13,96.55c0-.41,0-.82,0-1.23C12.94,95.73,13,96.14,13,96.55Z"/><path class="cls-2" d="M13,97c0-.15,0-.29,0-.43C13,96.69,13,96.83,13,97Z"/><path class="cls-2" d="M12.93,95.32c0-.59,0-1.18,0-1.78C12.91,94.13,12.92,94.72,12.93,95.32Z"/><path class="cls-2" d="M115.59,71,60.45,63.87,47.76,66.29l-8.86-.83-26,27.85v.23c0,.6,0,1.19,0,1.78,0,.41,0,.82,0,1.23,0,.14,0,.28,0,.43a79,79,0,0,0,.89,8.73A76.27,76.27,0,0,0,82.8,169.52l64.33-52Z"/><path class="cls-3" d="M54.22,118.2a5,5,0,0,1-4.73,5.21,5.23,5.23,0,0,1,0-10.42A5,5,0,0,1,54.22,118.2Z"/><path class="cls-3" d="M128.13,117.88a4.84,4.84,0,1,1-4.81-5.37A5.11,5.11,0,0,1,128.13,117.88Z"/><polygon class="cls-4" points="117.38 74.67 117.38 94.39 133.9 93.27 134.06 91.03 129.57 76.44 117.38 74.67"/><rect class="cls-5" x="135.95" y="106.05" width="8.7" height="5.16"/><rect class="cls-5" x="37.23" y="62.92" width="71.05" height="42.76" rx="2.55" ry="2.55"/><path class="cls-4" d="M122.71,107.34a10.74,10.74,0,1,0,10.73,10.74A10.74,10.74,0,0,0,122.71,107.34Zm2.16,13.09a3.21,3.21,0,0,1-5.37-2.35,2.88,2.88,0,0,1,.06-.59,3.2,3.2,0,0,1,6.29,0,2.88,2.88,0,0,1,.06.59A3.16,3.16,0,0,1,124.87,120.43Z"/><path class="cls-4" d="M49.86,107.34h0a10.73,10.73,0,0,0-10.55,8.91,10.93,10.93,0,0,0-.16,1.83,10.73,10.73,0,0,0,21.46,0,10,10,0,0,0-.16-1.83A10.73,10.73,0,0,0,49.86,107.34ZM52,120.43a3.21,3.21,0,0,1-5.37-2.35,3.81,3.81,0,0,1,0-.59,3.41,3.41,0,0,1,.52-1.24,3.2,3.2,0,0,1,5.26,0,3.25,3.25,0,0,1,.52,1.24,3.8,3.8,0,0,1,.06.59A3.2,3.2,0,0,1,52,120.43Z"/><path class="cls-6" d="M46,107.34h-9v8.91h1.65s0-.08,0-.11A11.38,11.38,0,0,1,46,107.34Z"/><path class="cls-5" d="M144.93,110.68c0-4.9.09-9.76-.09-14.65l-4.71-2.17c-1.1-.51-2.2-1-3.29-1.56l-.41-.2c-2.22-1.19-2.15-4.2-3-6.32-.88-3.6-2.33-7.1-3.21-10.7a21.9,21.9,0,0,1-.7-7c-6.41-.09-12.77,0-19.13,0h-.06l0,0v7.88l0,0c0,10.45-.11,20.92,0,31.37H53.68a11.38,11.38,0,0,1,7.38,8.8s0,.07,0,.11h49.39c1.57-5,5.48-9.8,11.1-10.11,6.2-.9,12,3.86,13.3,9.79,4.09,0,8.18,0,12.26,0,0-1.71.05-3.46.05-5.17ZM118.78,91.44c0-4.76-.14-9.52,0-14.29,3.19,0,6.43,0,9.62.09,1.26,4.72,2.79,9.39,4.05,14.16C127.9,91.49,123.36,91.44,118.78,91.44ZM144.42,111c-2.78.1-5.6.1-8.38,0,0-1.67,0-3.3,0-5,2.78,0,5.55,0,8.33,0C144.46,107.78,144.46,109.41,144.42,111Z"/></svg>