<svg id="Layer_1" data-name="Layer 1" xmlns="http://www.w3.org/2000/svg" viewBox="0 0 178 188"><defs><style>.cls-1{fill:#72cec5;}.cls-2{opacity:0.8;}.cls-3{fill:#559a9d;}.cls-4{fill:#e6e6e5;}.cls-5{fill:#fff;}</style></defs><title>Artboard 17</title><path class="cls-1" d="M165.63,92.54A76.24,76.24,0,1,1,89.39,16.3,76.23,76.23,0,0,1,165.63,92.54Z"/><g class="cls-2"><path class="cls-3" d="M23.58,131,23,130Z"/><path class="cls-3" d="M22.48,129.08l-.38-.69Z"/><path class="cls-3" d="M28.76,138.75l-.59-.78Z"/><path class="cls-3" d="M27.81,137.48c-.35-.48-.69-1-1-1.45C27.12,136.51,27.46,137,27.81,137.48Z"/><path class="cls-3" d="M26.35,135.41c-.17-.24-.33-.49-.5-.74C26,134.92,26.18,135.17,26.35,135.41Z"/><path class="cls-3" d="M25.43,134l-.48-.74Z"/><path class="cls-3" d="M24.52,132.59c-.15-.24-.3-.48-.44-.72C24.22,132.11,24.37,132.35,24.52,132.59Z"/><path class="cls-3" d="M21.68,127.59l-.36-.7Z"/><path class="cls-3" d="M17.31,117.4c-.06-.17-.12-.33-.17-.49C17.19,117.07,17.25,117.23,17.31,117.4Z"/><path class="cls-3" d="M17.94,119.17l-.24-.65Z"/><path class="cls-3" d="M18.57,120.79c-.09-.22-.18-.44-.26-.67C18.39,120.35,18.48,120.57,18.57,120.79Z"/><path class="cls-3" d="M20.1,124.36l-.27-.6Z"/><path class="cls-3" d="M20.91,126.05l-.33-.68Z"/><path class="cls-3" d="M19.22,122.37c-.09-.2-.17-.41-.26-.62C19.05,122,19.13,122.17,19.22,122.37Z"/><path class="cls-3" d="M52.36,159.19c-1.65-.92-3.27-1.91-4.85-2.95C49.09,157.28,50.71,158.27,52.36,159.19Z"/><path class="cls-3" d="M47.3,156.11l-1.06-.72Z"/><path class="cls-3" d="M46,155.23c-1.51-1-3-2.16-4.43-3.31C43,153.07,44.5,154.18,46,155.23Z"/><path class="cls-3" d="M53.7,159.91c-.4-.21-.8-.42-1.19-.64C52.9,159.49,53.3,159.7,53.7,159.91Z"/><path class="cls-3" d="M60.46,163.09l-1.28-.54Z"/><path class="cls-3" d="M29.77,140l-.61-.77Z"/><path class="cls-3" d="M41.33,151.71,40.4,151Z"/><path class="cls-3" d="M59.11,162.52q-2.67-1.16-5.24-2.51Q56.44,161.36,59.11,162.52Z"/><path class="cls-3" d="M33.59,144.47c-.82-.88-1.63-1.79-2.41-2.72C32,142.68,32.77,143.59,33.59,144.47Z"/><path class="cls-3" d="M34.68,145.62c-.26-.26-.51-.53-.76-.79C34.17,145.09,34.42,145.36,34.68,145.62Z"/><path class="cls-3" d="M30.81,141.32l-.63-.77Z"/><path class="cls-3" d="M35.82,146.77,35,146Z"/><path class="cls-3" d="M40.1,150.69l-.91-.78Z"/><path class="cls-3" d="M39,149.74c-1-.86-1.94-1.76-2.88-2.67C37.06,148,38,148.88,39,149.74Z"/><path class="cls-3" d="M14.73,108l-.09-.42Z"/><path class="cls-3" d="M15.21,110.15l-.12-.5Z"/><path class="cls-3" d="M14.1,104.5c0-.21-.07-.42-.1-.63C14,104.08,14.06,104.29,14.1,104.5Z"/><path class="cls-3" d="M14.39,106.26c0-.2-.07-.41-.1-.61C14.32,105.85,14.36,106.06,14.39,106.26Z"/><path class="cls-3" d="M15.66,112c-.05-.21-.11-.42-.16-.63C15.55,111.55,15.61,111.76,15.66,112Z"/><path class="cls-3" d="M16.13,113.67,16,113Z"/><path class="cls-3" d="M13.4,98.6c0-.2,0-.39,0-.59C13.37,98.21,13.38,98.4,13.4,98.6Z"/><path class="cls-3" d="M13.2,94.91c0-.19,0-.38,0-.57C13.19,94.53,13.19,94.72,13.2,94.91Z"/><path class="cls-3" d="M16.63,115.33c-.06-.18-.11-.36-.17-.54C16.52,115,16.57,115.15,16.63,115.33Z"/><path class="cls-3" d="M13.83,102.65c0-.18-.05-.35-.07-.53C13.78,102.3,13.8,102.47,13.83,102.65Z"/><path class="cls-3" d="M13.56,100.37l0-.26Z"/><path class="cls-3" d="M13.28,96.79l0-.63Z"/><path class="cls-3" d="M39.19,149.91l-.19-.17Z"/><path class="cls-3" d="M13.36,98c0-.4-.06-.81-.08-1.22C13.3,97.2,13.33,97.61,13.36,98Z"/><path class="cls-3" d="M36.12,147.07l-.3-.3Z"/><path class="cls-3" d="M35,146l-.36-.37Z"/><path class="cls-3" d="M33.92,144.83l-.33-.36Z"/><path class="cls-3" d="M13.76,102.12c-.08-.58-.14-1.16-.2-1.75C13.62,101,13.68,101.54,13.76,102.12Z"/><path class="cls-3" d="M13.53,100.11c0-.51-.09-1-.13-1.51C13.44,99.1,13.48,99.6,13.53,100.11Z"/><path class="cls-3" d="M52.51,159.27l-.15-.08Z"/><path class="cls-3" d="M40.4,151l-.3-.26Z"/><path class="cls-3" d="M60.63,163.16l-.17-.07Z"/><path class="cls-3" d="M59.18,162.55l-.07,0Z"/><path class="cls-3" d="M53.87,160a1,1,0,0,1-.17-.1A1,1,0,0,0,53.87,160Z"/><path class="cls-3" d="M13.25,96.16c0-.42,0-.83-.05-1.25C13.21,95.33,13.23,95.74,13.25,96.16Z"/><path class="cls-3" d="M41.58,151.92l-.25-.21Z"/><path class="cls-3" d="M13.18,94.34c0-.6,0-1.2,0-1.8C13.16,93.14,13.17,93.74,13.18,94.34Z"/><path class="cls-3" d="M46.24,155.39l-.23-.16Z"/><path class="cls-3" d="M47.51,156.24l-.21-.13Z"/><path class="cls-3" d="M17.14,116.91c-.18-.53-.35-1-.51-1.58C16.79,115.86,17,116.38,17.14,116.91Z"/><path class="cls-3" d="M20.58,125.37l-.48-1Z"/><path class="cls-3" d="M21.32,126.89c-.14-.28-.28-.56-.41-.84C21,126.33,21.18,126.61,21.32,126.89Z"/><path class="cls-3" d="M16,113c-.1-.35-.19-.7-.29-1.06C15.76,112.33,15.85,112.68,16,113Z"/><path class="cls-3" d="M22.1,128.39l-.42-.8Z"/><path class="cls-3" d="M15.5,111.34c-.1-.4-.2-.79-.29-1.19C15.3,110.55,15.4,110.94,15.5,111.34Z"/><path class="cls-3" d="M23,130l-.49-.89Z"/><path class="cls-3" d="M18.31,120.12c-.13-.31-.25-.63-.37-1C18.06,119.49,18.18,119.81,18.31,120.12Z"/><path class="cls-3" d="M19.83,123.76c-.21-.46-.41-.92-.61-1.39C19.42,122.84,19.62,123.3,19.83,123.76Z"/><path class="cls-3" d="M19,121.75l-.39-1Z"/><path class="cls-3" d="M31.18,141.75c-.12-.14-.25-.28-.37-.43C30.93,141.47,31.06,141.61,31.18,141.75Z"/><path class="cls-3" d="M16.46,114.79l-.33-1.12Z"/><path class="cls-3" d="M28.17,138l-.36-.49Z"/><path class="cls-3" d="M14.29,105.65c-.07-.38-.13-.76-.19-1.15C14.16,104.89,14.22,105.27,14.29,105.65Z"/><path class="cls-3" d="M17.7,118.52l-.39-1.12Z"/><path class="cls-3" d="M29.16,139.27l-.4-.52Z"/><path class="cls-3" d="M30.18,140.55l-.41-.51Z"/><path class="cls-3" d="M14,103.87c-.06-.4-.12-.81-.17-1.22C13.88,103.06,13.94,103.47,14,103.87Z"/><path class="cls-3" d="M25,133.28l-.43-.69Z"/><path class="cls-3" d="M24.08,131.87c-.17-.28-.34-.56-.5-.84C23.74,131.31,23.91,131.59,24.08,131.87Z"/><path class="cls-3" d="M15.09,109.65c-.13-.55-.25-1.11-.36-1.67C14.84,108.54,15,109.1,15.09,109.65Z"/><path class="cls-3" d="M14.64,107.56c-.08-.43-.17-.87-.25-1.3C14.47,106.69,14.56,107.13,14.64,107.56Z"/><path class="cls-3" d="M26.78,136l-.43-.62Z"/><path class="cls-3" d="M25.85,134.67l-.42-.65Z"/><path class="cls-3" d="M120.32,135.72l-6.22-12.57-2.89-1,22.07-15.59-6.72-3.4,12-35.12L104,67.55,87,69.38l-13-.83-10.91-.73-4.17-3.91L28.49,60.53,17.74,66.46a76.16,76.16,0,0,0-4.58,26.08c0,.6,0,1.2,0,1.8,0,.19,0,.38,0,.57,0,.42,0,.83.05,1.25l0,.63c0,.41.05.82.08,1.22,0,.2,0,.39,0,.59,0,.5.08,1,.13,1.51l0,.26c.06.59.12,1.17.2,1.75,0,.18,0,.35.07.53.05.41.11.82.17,1.22,0,.21.06.42.1.63.06.39.12.77.19,1.15,0,.2.07.41.1.61.08.43.17.87.25,1.3l.09.42c.11.56.23,1.12.36,1.67l.12.5c.09.4.19.79.29,1.19.05.21.11.42.16.63.1.36.19.71.29,1.06l.18.64.33,1.12c.06.18.11.36.17.54.16.53.33,1,.51,1.58.05.16.11.32.17.49l.39,1.12.24.65c.12.32.24.64.37,1s.17.45.26.67l.39,1c.09.21.17.42.26.62.2.47.4.93.61,1.39l.27.6.48,1,.33.68c.13.28.27.56.41.84l.36.7.42.8.38.69L23,130l.61,1.06c.16.28.33.56.5.84s.29.48.44.72l.43.69.48.74.42.65c.17.25.33.5.5.74l.43.62c.34.48.68,1,1,1.45l.36.49.59.78.4.52.61.77.41.51.63.77c.12.15.25.29.37.43.78.93,1.59,1.84,2.41,2.72l.33.36c.25.26.5.53.76.79L35,146l.78.78.3.3c.94.91,1.9,1.81,2.88,2.67l.19.17.91.78.3.26.93.76.25.21c1.44,1.15,2.92,2.26,4.43,3.31l.23.16,1.06.72.21.13c1.58,1,3.2,2,4.85,2.95l.15.08c.39.22.79.43,1.19.64a1,1,0,0,0,.17.1q2.57,1.35,5.24,2.51l.07,0,1.28.54.17.07C62.46,163.9,120.32,135.72,120.32,135.72Z"/></g><path class="cls-4" d="M140.66,66.17H62.77a1.7,1.7,0,0,0,0,3.38h77.89a1.71,1.71,0,0,0,0-3.38Z"/><path class="cls-4" d="M135.75,79.74H66.58a1.71,1.71,0,0,0,0,3.38h69.17a1.71,1.71,0,0,0,0-3.38Z"/><path class="cls-4" d="M130.56,93.31h-61a1.71,1.71,0,0,0,0,3.38h61a1.71,1.71,0,0,0,0-3.38Z"/><polygon class="cls-4" points="77.05 68.43 74.13 68.86 78.1 104.15 81.19 104.91 77.05 68.43"/><polygon class="cls-4" points="88.79 68.68 85.85 68.92 88.01 105.23 91.09 104.58 88.79 68.68"/><polygon class="cls-4" points="97.65 68.17 97.64 105.34 100.44 105.23 100.59 68.17 97.65 68.17"/><polygon class="cls-4" points="111.24 68.05 105.67 105.77 108.85 104.47 114.14 68.61 111.24 68.05"/><polygon class="cls-4" points="123.89 68.03 114.74 105.98 118.01 105.23 126.73 68.94 123.89 68.03"/><polygon class="cls-4" points="136.28 67.42 124.18 104.15 127.08 105.55 139.03 68.61 136.28 67.42"/><path class="cls-5" d="M133.28,101.64H73.91L62,63.09c-.17,2.06-2,2.49-3.81,2.74L70.37,105a2.19,2.19,0,0,0,2,1.64h60.88a2.51,2.51,0,0,0,0-5Z"/><path class="cls-5" d="M61.4,61.13a4,4,0,0,0-2.7-1H30.86a3.48,3.48,0,1,0,0,6.91H58.7a3.42,3.42,0,0,0,.46,0,3.62,3.62,0,0,0,3.35-3.08,1.86,1.86,0,0,0,0-.33A3.29,3.29,0,0,0,61.4,61.13Z"/><polygon class="cls-5" points="116.59 130.13 69.02 130.13 74.7 103.78 77.68 104.63 72.95 126.59 116.59 126.59 116.59 130.13"/><circle class="cls-5" cx="71.48" cy="128.68" r="8.55" transform="translate(-4.89 2.84) rotate(-2.2)"/><path class="cls-3" d="M77.89,128.68a6.41,6.41,0,1,1-6.41-6.41A6.4,6.4,0,0,1,77.89,128.68Z"/><path class="cls-5" d="M124.25,128.68a8.55,8.55,0,1,1-8.54-8.55A8.54,8.54,0,0,1,124.25,128.68Z"/><circle class="cls-5" cx="115.48" cy="128.68" r="8.55" transform="translate(-4.85 4.53) rotate(-2.2)"/><path class="cls-3" d="M121.89,128.68a6.41,6.41,0,1,1-6.41-6.41A6.4,6.4,0,0,1,121.89,128.68Z"/></svg>